<?xml version="1.0" encoding="utf-8"?>
<!-- Generator: Adobe Illustrator 23.0.2, SVG Export Plug-In . SVG Version: 6.00 Build 0)  -->
<svg version="1.1" id="Camada_1" xmlns="http://www.w3.org/2000/svg" xmlns:xlink="http://www.w3.org/1999/xlink" x="0px" y="0px"
	 viewBox="0 0 89 136" style="enable-background:new 0 0 89 136;" xml:space="preserve">
<style type="text/css">
	.st0{fill:#FFFFF0;}
</style>
<path class="st0" d="M89,0v126.7c-0.1-4.6-5-8.3-11-8.3c-6,0-10.9,3.7-11,8.3v0.3c0,4.6-4.9,8.5-11,8.5c-6.1,0-11-3.8-11-8.5v-0.2
	c-0.1-4.7-5.1-8.5-11.3-8.5c-6.2,0-11.2,3.8-11.3,8.5c-0.4,4.5-5.3,7.9-11.2,7.9c-6,0-10.8-3.5-11.2-7.9V92l0,0V0H89z"/>
</svg>
